<svg width="116" height="14" viewBox="0 0 116 14" fill="none" xmlns="http://www.w3.org/2000/svg">
<g clip-path="url(#clip0_323_4770)">
<path d="M15.1126 5.36979C15.0129 5.08631 14.7407 4.8856 14.4201 4.8588L10.046 4.49189L8.31741 0.752571C8.18978 0.477847 7.89938 0.300537 7.57615 0.300537C7.25292 0.300537 6.96241 0.477847 6.83559 0.752571L5.10696 4.49189L0.732248 4.8588C0.411561 4.88614 0.140006 5.08684 0.0396615 5.36979C-0.0601052 5.65327 0.0320316 5.96421 0.27457 6.16074L3.58098 8.83951L2.60608 12.8068C2.53475 13.0985 2.6573 13.4001 2.91926 13.5751C3.06006 13.6696 3.22549 13.7168 3.3915 13.7168C3.53416 13.7168 3.67693 13.6818 3.80444 13.6113L7.57615 11.5276L11.3472 13.6113C11.6238 13.764 11.9717 13.75 12.2331 13.5751C12.495 13.4001 12.6176 13.0985 12.5462 12.8068L11.5713 8.83951L14.8777 6.16074C15.1202 5.96421 15.2124 5.65391 15.1126 5.36979Z" fill="#FFA000"/>
</g>
<g clip-path="url(#clip1_323_4770)">
<path d="M65.4173 5.36979C65.3176 5.08631 65.0454 4.8856 64.7247 4.8588L60.3507 4.49189L58.6221 0.752571C58.4945 0.477847 58.2041 0.300537 57.8808 0.300537C57.5576 0.300537 57.2671 0.477847 57.1403 0.752571L55.4116 4.49189L51.0369 4.8588C50.7162 4.88614 50.4447 5.08684 50.3443 5.36979C50.2446 5.65327 50.3367 5.96421 50.5793 6.16074L53.8857 8.83951L52.9108 12.8068C52.8394 13.0985 52.962 13.4001 53.2239 13.5751C53.3647 13.6696 53.5302 13.7168 53.6962 13.7168C53.8388 13.7168 53.9816 13.6818 54.1091 13.6113L57.8808 11.5276L61.6519 13.6113C61.9285 13.764 62.2764 13.75 62.5377 13.5751C62.7997 13.4001 62.9222 13.0985 62.8509 12.8068L61.876 8.83951L65.1824 6.16074C65.4248 5.96421 65.5171 5.65391 65.4173 5.36979Z" fill="#D9D9D9"/>
</g>
<g clip-path="url(#clip2_323_4770)">
<path d="M40.265 5.36979C40.1652 5.08631 39.8931 4.8856 39.5724 4.8588L35.1984 4.49189L33.4698 0.752571C33.3421 0.477847 33.0517 0.300537 32.7285 0.300537C32.4053 0.300537 32.1148 0.477847 31.9879 0.752571L30.2593 4.49189L25.8846 4.8588C25.5639 4.88614 25.2924 5.08684 25.192 5.36979C25.0922 5.65327 25.1844 5.96421 25.4269 6.16074L28.7333 8.83951L27.7584 12.8068C27.6871 13.0985 27.8096 13.4001 28.0716 13.5751C28.2124 13.6696 28.3778 13.7168 28.5438 13.7168C28.6865 13.7168 28.8293 13.6818 28.9568 13.6113L32.7285 11.5276L36.4995 13.6113C36.7762 13.764 37.124 13.75 37.3854 13.5751C37.6474 13.4001 37.7699 13.0985 37.6986 12.8068L36.7237 8.83951L40.0301 6.16074C40.2725 5.96421 40.3648 5.65391 40.265 5.36979Z" fill="#FFA000"/>
</g>
<g clip-path="url(#clip3_323_4770)">
<path d="M90.5697 5.36979C90.4699 5.08631 90.1978 4.8856 89.8771 4.8588L85.5031 4.49189L83.7744 0.752571C83.6468 0.477847 83.3564 0.300537 83.0332 0.300537C82.71 0.300537 82.4194 0.477847 82.2926 0.752571L80.564 4.49189L76.1893 4.8588C75.8686 4.88614 75.597 5.08684 75.4967 5.36979C75.3969 5.65327 75.4891 5.96421 75.7316 6.16074L79.038 8.83951L78.0631 12.8068C77.9918 13.0985 78.1143 13.4001 78.3763 13.5751C78.5171 13.6696 78.6825 13.7168 78.8485 13.7168C78.9912 13.7168 79.134 13.6818 79.2615 13.6113L83.0332 11.5276L86.8042 13.6113C87.0808 13.764 87.4287 13.75 87.6901 13.5751C87.952 13.4001 88.0746 13.0985 88.0033 12.8068L87.0284 8.83951L90.3348 6.16074C90.5772 5.96421 90.6694 5.65391 90.5697 5.36979Z" fill="#D9D9D9"/>
</g>
<g clip-path="url(#clip4_323_4770)">
<path d="M115.722 5.36979C115.622 5.08631 115.35 4.8856 115.029 4.8588L110.655 4.49189L108.927 0.752571C108.799 0.477847 108.509 0.300537 108.186 0.300537C107.862 0.300537 107.572 0.477847 107.445 0.752571L105.716 4.49189L101.342 4.8588C101.021 4.88614 100.749 5.08684 100.649 5.36979C100.549 5.65327 100.641 5.96421 100.884 6.16074L104.19 8.83951L103.215 12.8068C103.144 13.0985 103.267 13.4001 103.529 13.5751C103.669 13.6696 103.835 13.7168 104.001 13.7168C104.144 13.7168 104.286 13.6818 104.414 13.6113L108.186 11.5276L111.957 13.6113C112.233 13.764 112.581 13.75 112.842 13.5751C113.104 13.4001 113.227 13.0985 113.156 12.8068L112.181 8.83951L115.487 6.16074C115.73 5.96421 115.822 5.65391 115.722 5.36979Z" fill="#D9D9D9"/>
</g>
<defs>
<clipPath id="clip0_323_4770">
<rect width="15.1523" height="14" fill="white"/>
</clipPath>
<clipPath id="clip1_323_4770">
<rect width="15.1523" height="14" fill="white" transform="translate(50.3047)"/>
</clipPath>
<clipPath id="clip2_323_4770">
<rect width="15.1523" height="14" fill="white" transform="translate(25.1523)"/>
</clipPath>
<clipPath id="clip3_323_4770">
<rect width="15.1523" height="14" fill="white" transform="translate(75.457)"/>
</clipPath>
<clipPath id="clip4_323_4770">
<rect width="15.1523" height="14" fill="white" transform="translate(100.609)"/>
</clipPath>
</defs>
</svg>
