<svg width="141" height="20" viewBox="0 0 141 20" fill="none" xmlns="http://www.w3.org/2000/svg">
<g clip-path="url(#clip0_1389_6165)">
<path d="M19.4305 7.51207C19.3023 7.11955 18.9524 6.84166 18.5401 6.80454L12.9163 6.29652L10.6938 1.119C10.5297 0.738609 10.1563 0.493103 9.74077 0.493103C9.32519 0.493103 8.95167 0.738609 8.78862 1.119L6.56609 6.29652L0.941462 6.80454C0.52915 6.8424 0.180008 7.12029 0.0509934 7.51207C-0.0772781 7.90458 0.0411835 8.33511 0.353019 8.60723L4.60411 12.3163L3.35068 17.8094C3.25897 18.2133 3.41652 18.631 3.75333 18.8732C3.93436 19.0041 4.14706 19.0695 4.3605 19.0695C4.54391 19.0695 4.72748 19.021 4.89142 18.9234L9.74077 16.0382L14.5892 18.9234C14.9449 19.1349 15.3921 19.1155 15.7282 18.8732C16.065 18.631 16.2226 18.2133 16.1309 17.8094L14.8774 12.3163L19.1285 8.60723C19.4402 8.33511 19.5588 7.90547 19.4305 7.51207Z" fill="#FFA000"/>
</g>
<g clip-path="url(#clip1_1389_6165)">
<path d="M80.0399 7.51207C79.9116 7.11955 79.5618 6.84166 79.1494 6.80454L73.5257 6.29652L71.3032 1.119C71.1391 0.738609 70.7657 0.493103 70.3501 0.493103C69.9346 0.493103 69.561 0.738609 69.398 1.119L67.1755 6.29652L61.5508 6.80454C61.1385 6.8424 60.7894 7.12029 60.6604 7.51207C60.5321 7.90458 60.6506 8.33511 60.9624 8.60723L65.2135 12.3163L63.9601 17.8094C63.8683 18.2133 64.0259 18.631 64.3627 18.8732C64.5437 19.0041 64.7564 19.0695 64.9699 19.0695C65.1533 19.0695 65.3369 19.021 65.5008 18.9234L70.3501 16.0382L75.1986 18.9234C75.5543 19.1349 76.0015 19.1155 76.3376 18.8732C76.6744 18.631 76.8319 18.2133 76.7402 17.8094L75.4868 12.3163L79.7379 8.60723C80.0496 8.33511 80.1682 7.90547 80.0399 7.51207Z" fill="#D9D9D9"/>
</g>
<g clip-path="url(#clip2_1389_6165)">
<path d="M49.7352 7.51207C49.607 7.11955 49.2571 6.84166 48.8448 6.80454L43.221 6.29652L40.9985 1.119C40.8344 0.738609 40.461 0.493103 40.0455 0.493103C39.6299 0.493103 39.2564 0.738609 39.0933 1.119L36.8708 6.29652L31.2461 6.80454C30.8338 6.8424 30.4847 7.12029 30.3557 7.51207C30.2274 7.90458 30.3459 8.33511 30.6577 8.60723L34.9088 12.3163L33.6554 17.8094C33.5637 18.2133 33.7212 18.631 34.058 18.8732C34.2391 19.0041 34.4517 19.0695 34.6652 19.0695C34.8486 19.0695 35.0322 19.021 35.1961 18.9234L40.0455 16.0382L44.8939 18.9234C45.2496 19.1349 45.6968 19.1155 46.0329 18.8732C46.3697 18.631 46.5273 18.2133 46.4355 17.8094L45.1821 12.3163L49.4332 8.60723C49.7449 8.33511 49.8635 7.90547 49.7352 7.51207Z" fill="#FFA000"/>
</g>
<g clip-path="url(#clip3_1389_6165)">
<path d="M110.345 7.51207C110.216 7.11955 109.866 6.84166 109.454 6.80454L103.83 6.29652L101.608 1.119C101.444 0.738609 101.07 0.493103 100.655 0.493103C100.239 0.493103 99.8657 0.738609 99.7027 1.119L97.4801 6.29652L91.8555 6.80454C91.4432 6.8424 91.0941 7.12029 90.9651 7.51207C90.8368 7.90458 90.9552 8.33511 91.2671 8.60723L95.5182 12.3163L94.2647 17.8094C94.173 18.2133 94.3306 18.631 94.6674 18.8732C94.8484 19.0041 95.0611 19.0695 95.2746 19.0695C95.458 19.0695 95.6415 19.021 95.8055 18.9234L100.655 16.0382L105.503 18.9234C105.859 19.1349 106.306 19.1155 106.642 18.8732C106.979 18.631 107.137 18.2133 107.045 17.8094L105.791 12.3163L110.043 8.60723C110.354 8.33511 110.473 7.90547 110.345 7.51207Z" fill="#D9D9D9"/>
</g>
<g clip-path="url(#clip4_1389_6165)">
<path d="M140.648 7.51207C140.52 7.11955 140.17 6.84166 139.758 6.80454L134.134 6.29652L131.912 1.119C131.747 0.738609 131.374 0.493103 130.959 0.493103C130.543 0.493103 130.169 0.738609 130.006 1.119L127.784 6.29652L122.159 6.80454C121.747 6.8424 121.398 7.12029 121.269 7.51207C121.14 7.90458 121.259 8.33511 121.571 8.60723L125.822 12.3163L124.568 17.8094C124.477 18.2133 124.634 18.631 124.971 18.8732C125.152 19.0041 125.365 19.0695 125.578 19.0695C125.762 19.0695 125.945 19.021 126.109 18.9234L130.959 16.0382L135.807 18.9234C136.163 19.1349 136.61 19.1155 136.946 18.8732C137.283 18.631 137.44 18.2133 137.349 17.8094L136.095 12.3163L140.346 8.60723C140.658 8.33511 140.777 7.90547 140.648 7.51207Z" fill="#D9D9D9"/>
</g>
<defs>
<clipPath id="clip0_1389_6165">
<rect width="19.4815" height="19.3846" fill="white" transform="translate(0 0.0769043)"/>
</clipPath>
<clipPath id="clip1_1389_6165">
<rect width="19.4815" height="19.3846" fill="white" transform="translate(60.6094 0.0769043)"/>
</clipPath>
<clipPath id="clip2_1389_6165">
<rect width="19.4815" height="19.3846" fill="white" transform="translate(30.3047 0.0769043)"/>
</clipPath>
<clipPath id="clip3_1389_6165">
<rect width="19.4815" height="19.3846" fill="white" transform="translate(90.9141 0.0769043)"/>
</clipPath>
<clipPath id="clip4_1389_6165">
<rect width="19.4815" height="19.3846" fill="white" transform="translate(121.218 0.0769043)"/>
</clipPath>
</defs>
</svg>
