<svg width="141" height="18" viewBox="0 0 141 18" fill="none" xmlns="http://www.w3.org/2000/svg">
<g clip-path="url(#clip0_1389_6164)">
<path d="M19.4305 6.90409C19.3023 6.53961 18.9524 6.28156 18.5401 6.24709L12.9163 5.77536L10.6938 0.967661C10.5297 0.614445 10.1563 0.386475 9.74077 0.386475C9.32519 0.386475 8.95167 0.614445 8.78862 0.967661L6.56609 5.77536L0.941462 6.24709C0.52915 6.28225 0.180008 6.54029 0.0509934 6.90409C-0.0772781 7.26856 0.0411835 7.66833 0.353019 7.92102L4.60411 11.3652L3.35068 16.4659C3.25897 16.841 3.41652 17.2288 3.75333 17.4537C3.93436 17.5753 4.14706 17.636 4.3605 17.636C4.54391 17.636 4.72748 17.5909 4.89142 17.5003L9.74077 14.8212L14.5892 17.5003C14.9449 17.6967 15.3921 17.6787 15.7282 17.4537C16.065 17.2288 16.2226 16.841 16.1309 16.4659L14.8774 11.3652L19.1285 7.92102C19.4402 7.66833 19.5588 7.26939 19.4305 6.90409Z" fill="#FFA000"/>
</g>
<g clip-path="url(#clip1_1389_6164)">
<path d="M80.0399 6.90409C79.9116 6.53961 79.5618 6.28156 79.1494 6.24709L73.5257 5.77536L71.3032 0.967661C71.1391 0.614445 70.7657 0.386475 70.3501 0.386475C69.9346 0.386475 69.561 0.614445 69.398 0.967661L67.1755 5.77536L61.5508 6.24709C61.1385 6.28225 60.7894 6.54029 60.6604 6.90409C60.5321 7.26856 60.6506 7.66833 60.9624 7.92102L65.2135 11.3652L63.9601 16.4659C63.8683 16.841 64.0259 17.2288 64.3627 17.4537C64.5437 17.5753 64.7564 17.636 64.9699 17.636C65.1533 17.636 65.3369 17.5909 65.5008 17.5003L70.3501 14.8212L75.1986 17.5003C75.5543 17.6967 76.0015 17.6787 76.3376 17.4537C76.6744 17.2288 76.8319 16.841 76.7402 16.4659L75.4868 11.3652L79.7379 7.92102C80.0496 7.66833 80.1682 7.26939 80.0399 6.90409Z" fill="#FFA000"/>
</g>
<g clip-path="url(#clip2_1389_6164)">
<path d="M49.7352 6.90409C49.607 6.53961 49.2571 6.28156 48.8448 6.24709L43.221 5.77536L40.9985 0.967661C40.8344 0.614445 40.461 0.386475 40.0455 0.386475C39.6299 0.386475 39.2564 0.614445 39.0933 0.967661L36.8708 5.77536L31.2461 6.24709C30.8338 6.28225 30.4847 6.54029 30.3557 6.90409C30.2274 7.26856 30.3459 7.66833 30.6577 7.92102L34.9088 11.3652L33.6554 16.4659C33.5637 16.841 33.7212 17.2288 34.058 17.4537C34.2391 17.5753 34.4517 17.636 34.6652 17.636C34.8486 17.636 35.0322 17.5909 35.1961 17.5003L40.0455 14.8212L44.8939 17.5003C45.2496 17.6967 45.6968 17.6787 46.0329 17.4537C46.3697 17.2288 46.5273 16.841 46.4355 16.4659L45.1821 11.3652L49.4332 7.92102C49.7449 7.66833 49.8635 7.26939 49.7352 6.90409Z" fill="#FFA000"/>
</g>
<g clip-path="url(#clip3_1389_6164)">
<path d="M110.345 6.90409C110.216 6.53961 109.866 6.28156 109.454 6.24709L103.83 5.77536L101.608 0.967661C101.444 0.614445 101.07 0.386475 100.655 0.386475C100.239 0.386475 99.8657 0.614445 99.7027 0.967661L97.4801 5.77536L91.8555 6.24709C91.4432 6.28225 91.0941 6.54029 90.9651 6.90409C90.8368 7.26856 90.9552 7.66833 91.2671 7.92102L95.5182 11.3652L94.2647 16.4659C94.173 16.841 94.3306 17.2288 94.6674 17.4537C94.8484 17.5753 95.0611 17.636 95.2746 17.636C95.458 17.636 95.6415 17.5909 95.8055 17.5003L100.655 14.8212L105.503 17.5003C105.859 17.6967 106.306 17.6787 106.642 17.4537C106.979 17.2288 107.137 16.841 107.045 16.4659L105.791 11.3652L110.043 7.92102C110.354 7.66833 110.473 7.26939 110.345 6.90409Z" fill="#D9D9D9"/>
</g>
<g clip-path="url(#clip4_1389_6164)">
<path d="M140.648 6.90409C140.52 6.53961 140.17 6.28156 139.758 6.24709L134.134 5.77536L131.912 0.967661C131.747 0.614445 131.374 0.386475 130.959 0.386475C130.543 0.386475 130.169 0.614445 130.006 0.967661L127.784 5.77536L122.159 6.24709C121.747 6.28225 121.398 6.54029 121.269 6.90409C121.14 7.26856 121.259 7.66833 121.571 7.92102L125.822 11.3652L124.568 16.4659C124.477 16.841 124.634 17.2288 124.971 17.4537C125.152 17.5753 125.365 17.636 125.578 17.636C125.762 17.636 125.945 17.5909 126.109 17.5003L130.959 14.8212L135.807 17.5003C136.163 17.6967 136.61 17.6787 136.946 17.4537C137.283 17.2288 137.44 16.841 137.349 16.4659L136.095 11.3652L140.346 7.92102C140.658 7.66833 140.777 7.26939 140.648 6.90409Z" fill="#D9D9D9"/>
</g>
<defs>
<clipPath id="clip0_1389_6164">
<rect width="19.4815" height="18" fill="white"/>
</clipPath>
<clipPath id="clip1_1389_6164">
<rect width="19.4815" height="18" fill="white" transform="translate(60.6094)"/>
</clipPath>
<clipPath id="clip2_1389_6164">
<rect width="19.4815" height="18" fill="white" transform="translate(30.3047)"/>
</clipPath>
<clipPath id="clip3_1389_6164">
<rect width="19.4815" height="18" fill="white" transform="translate(90.9141)"/>
</clipPath>
<clipPath id="clip4_1389_6164">
<rect width="19.4815" height="18" fill="white" transform="translate(121.218)"/>
</clipPath>
</defs>
</svg>
