<svg width="141" height="18" viewBox="0 0 141 18" fill="none" xmlns="http://www.w3.org/2000/svg">
<g clip-path="url(#clip0_1357_6164)">
<path d="M19.4305 6.90406C19.3023 6.53958 18.9524 6.28153 18.5401 6.24706L12.9163 5.77533L10.6938 0.967631C10.5297 0.614414 10.1563 0.386444 9.74077 0.386444C9.32519 0.386444 8.95167 0.614414 8.78862 0.967631L6.56609 5.77533L0.941462 6.24706C0.52915 6.28222 0.180008 6.54026 0.0509934 6.90406C-0.0772781 7.26853 0.0411835 7.6683 0.353019 7.92099L4.60411 11.3651L3.35068 16.4659C3.25897 16.8409 3.41652 17.2288 3.75333 17.4537C3.93436 17.5753 4.14706 17.636 4.3605 17.636C4.54391 17.636 4.72748 17.5909 4.89142 17.5003L9.74077 14.8212L14.5892 17.5003C14.9449 17.6967 15.3921 17.6787 15.7282 17.4537C16.065 17.2288 16.2226 16.8409 16.1309 16.4659L14.8774 11.3651L19.1285 7.92099C19.4402 7.6683 19.5588 7.26936 19.4305 6.90406Z" fill="#FFA000"/>
</g>
<g clip-path="url(#clip1_1357_6164)">
<path d="M80.0394 6.90406C79.9112 6.53958 79.5613 6.28153 79.149 6.24706L73.5252 5.77533L71.3027 0.967631C71.1386 0.614414 70.7652 0.386444 70.3497 0.386444C69.9341 0.386444 69.5606 0.614414 69.3975 0.967631L67.175 5.77533L61.5503 6.24706C61.138 6.28222 60.7889 6.54026 60.6599 6.90406C60.5316 7.26853 60.6501 7.6683 60.9619 7.92099L65.213 11.3651L63.9596 16.4659C63.8679 16.8409 64.0254 17.2288 64.3622 17.4537C64.5433 17.5753 64.7559 17.636 64.9694 17.636C65.1528 17.636 65.3364 17.5909 65.5003 17.5003L70.3497 14.8212L75.1981 17.5003C75.5538 17.6967 76.001 17.6787 76.3371 17.4537C76.6739 17.2288 76.8315 16.8409 76.7397 16.4659L75.4863 11.3651L79.7374 7.92099C80.0491 7.6683 80.1677 7.26936 80.0394 6.90406Z" fill="#FFA000"/>
</g>
<g clip-path="url(#clip2_1357_6164)">
<path d="M49.7352 6.90406C49.607 6.53958 49.2571 6.28153 48.8448 6.24706L43.221 5.77533L40.9985 0.967631C40.8344 0.614414 40.461 0.386444 40.0455 0.386444C39.6299 0.386444 39.2564 0.614414 39.0933 0.967631L36.8708 5.77533L31.2461 6.24706C30.8338 6.28222 30.4847 6.54026 30.3557 6.90406C30.2274 7.26853 30.3459 7.6683 30.6577 7.92099L34.9088 11.3651L33.6554 16.4659C33.5637 16.8409 33.7212 17.2288 34.058 17.4537C34.2391 17.5753 34.4517 17.636 34.6652 17.636C34.8486 17.636 35.0322 17.5909 35.1961 17.5003L40.0455 14.8212L44.8939 17.5003C45.2496 17.6967 45.6968 17.6787 46.0329 17.4537C46.3697 17.2288 46.5273 16.8409 46.4355 16.4659L45.1821 11.3651L49.4332 7.92099C49.7449 7.6683 49.8635 7.26936 49.7352 6.90406Z" fill="#FFA000"/>
</g>
<g clip-path="url(#clip3_1357_6164)">
<path d="M110.344 6.90406C110.216 6.53958 109.866 6.28153 109.454 6.24706L103.83 5.77533L101.607 0.967631C101.443 0.614414 101.07 0.386444 100.654 0.386444C100.239 0.386444 99.8652 0.614414 99.7022 0.967631L97.4797 5.77533L91.855 6.24706C91.4427 6.28222 91.0936 6.54026 90.9646 6.90406C90.8363 7.26853 90.9548 7.6683 91.2666 7.92099L95.5177 11.3651L94.2643 16.4659C94.1725 16.8409 94.3301 17.2288 94.6669 17.4537C94.8479 17.5753 95.0606 17.636 95.2741 17.636C95.4575 17.636 95.6411 17.5909 95.805 17.5003L100.654 14.8212L105.503 17.5003C105.858 17.6967 106.306 17.6787 106.642 17.4537C106.979 17.2288 107.136 16.8409 107.044 16.4659L105.791 11.3651L110.042 7.92099C110.354 7.6683 110.472 7.26936 110.344 6.90406Z" fill="#FFA000"/>
</g>
<g clip-path="url(#clip4_1357_6164)">
<path d="M140.648 6.90406C140.52 6.53958 140.17 6.28153 139.758 6.24706L134.134 5.77533L131.912 0.967631C131.747 0.614414 131.374 0.386444 130.959 0.386444C130.543 0.386444 130.169 0.614414 130.006 0.967631L127.784 5.77533L122.159 6.24706C121.747 6.28222 121.398 6.54026 121.269 6.90406C121.14 7.26853 121.259 7.6683 121.571 7.92099L125.822 11.3651L124.568 16.4659C124.477 16.8409 124.634 17.2288 124.971 17.4537C125.152 17.5753 125.365 17.636 125.578 17.636C125.762 17.636 125.945 17.5909 126.109 17.5003L130.959 14.8212L135.807 17.5003C136.163 17.6967 136.61 17.6787 136.946 17.4537C137.283 17.2288 137.44 16.8409 137.349 16.4659L136.095 11.3651L140.346 7.92099C140.658 7.6683 140.777 7.26936 140.648 6.90406Z" fill="#FFA000"/>
</g>
<defs>
<clipPath id="clip0_1357_6164">
<rect width="19.4815" height="18" fill="white"/>
</clipPath>
<clipPath id="clip1_1357_6164">
<rect width="19.4815" height="18" fill="white" transform="translate(60.6089)"/>
</clipPath>
<clipPath id="clip2_1357_6164">
<rect width="19.4815" height="18" fill="white" transform="translate(30.3047)"/>
</clipPath>
<clipPath id="clip3_1357_6164">
<rect width="19.4815" height="18" fill="white" transform="translate(90.9136)"/>
</clipPath>
<clipPath id="clip4_1357_6164">
<rect width="19.4815" height="18" fill="white" transform="translate(121.218)"/>
</clipPath>
</defs>
</svg>
