<svg width="118" height="118" viewBox="0 0 118 118" fill="none" xmlns="http://www.w3.org/2000/svg">
<g filter="url(#filter0_d_384_884)">
<path d="M88.5004 23.6H105.846C109.327 23.6 112.1 26.373 112.1 29.854V99.533C112.1 103.014 109.327 106.2 105.846 106.2H12.1544C8.67339 106.2 5.90039 103.014 5.90039 99.533V29.854C5.90039 26.373 8.67339 23.6 12.1544 23.6H29.5004L47.2004 11.8H70.8004L88.5004 23.6ZM59.0004 88.5C72.0394 88.5 82.6004 77.939 82.6004 64.9C82.6004 51.861 72.0394 41.3 59.0004 41.3C45.9614 41.3 35.4004 51.861 35.4004 64.9C35.4004 77.939 45.9614 88.5 59.0004 88.5Z" fill="#D9D9D9"/>
</g>
<defs>
<filter id="filter0_d_384_884" x="0" y="0" width="118" height="118" filterUnits="userSpaceOnUse" color-interpolation-filters="sRGB">
<feFlood flood-opacity="0" result="BackgroundImageFix"/>
<feColorMatrix in="SourceAlpha" type="matrix" values="0 0 0 0 0 0 0 0 0 0 0 0 0 0 0 0 0 0 127 0" result="hardAlpha"/>
<feOffset/>
<feColorMatrix type="matrix" values="0 0 0 0 0 0 0 0 0 0 0 0 0 0 0 0 0 0 0.1 0"/>
<feBlend mode="normal" in2="BackgroundImageFix" result="effect1_dropShadow_384_884"/>
<feBlend mode="normal" in="SourceGraphic" in2="effect1_dropShadow_384_884" result="shape"/>
</filter>
</defs>
</svg>
