<svg width="10" height="10" viewBox="0 0 10 10" fill="none" xmlns="http://www.w3.org/2000/svg">
<path d="M1.02235 3.30799C1.13955 3.19082 1.29849 3.125 1.46422 3.125C1.62995 3.125 1.78889 3.19082 1.9061 3.30799L4.99985 6.40174L8.09359 3.30799C8.21147 3.19414 8.36935 3.13115 8.53322 3.13257C8.69709 3.13399 8.85385 3.19972 8.96973 3.3156C9.08561 3.43148 9.15134 3.58824 9.15277 3.75212C9.15419 3.91599 9.09119 4.07386 8.97734 4.19174L5.44172 7.72737C5.32452 7.84454 5.16557 7.91036 4.99985 7.91036C4.83412 7.91036 4.67518 7.84454 4.55797 7.72737L1.02235 4.19174C0.905178 4.07454 0.839355 3.91559 0.839355 3.74987C0.839355 3.58414 0.905178 3.4252 1.02235 3.30799Z" fill="black" fill-opacity="0.5"/>
</svg>
