<svg width="16" height="16" viewBox="0 0 16 16" fill="none" xmlns="http://www.w3.org/2000/svg">
<path d="M5.29279 14.364C5.10532 14.1765 5 13.9222 5 13.657C5 13.3918 5.10532 13.1375 5.29279 12.95L10.2428 8.00001L5.29279 3.05001C5.11063 2.86141 5.00983 2.60881 5.01211 2.34661C5.01439 2.08441 5.11956 1.8336 5.30497 1.64819C5.49038 1.46279 5.74119 1.35762 6.00339 1.35534C6.26558 1.35306 6.51818 1.45385 6.70679 1.63601L12.3638 7.29301C12.5513 7.48054 12.6566 7.73485 12.6566 8.00001C12.6566 8.26518 12.5513 8.51948 12.3638 8.70701L6.70679 14.364C6.51926 14.5515 6.26495 14.6568 5.99979 14.6568C5.73462 14.6568 5.48031 14.5515 5.29279 14.364Z" fill="white"/>
</svg>
