<svg width="8" height="14" viewBox="0 0 8 14" fill="none" xmlns="http://www.w3.org/2000/svg">
<path d="M0.292787 13.7072C0.105316 13.5197 0 13.2654 0 13.0002C0 12.735 0.105316 12.4807 0.292787 12.2932L5.24279 7.34321L0.292787 2.39321C0.110629 2.20461 0.00983372 1.95201 0.0121121 1.68981C0.0143906 1.42762 0.11956 1.1768 0.304968 0.991394C0.490376 0.805986 0.741188 0.700818 1.00339 0.69854C1.26558 0.696261 1.51818 0.797055 1.70679 0.979214L7.36379 6.63621C7.55126 6.82374 7.65657 7.07805 7.65657 7.34321C7.65657 7.60838 7.55126 7.86269 7.36379 8.05021L1.70679 13.7072C1.51926 13.8947 1.26495 14 0.999786 14C0.734622 14 0.480314 13.8947 0.292787 13.7072Z" fill="white"/>
</svg>
