<svg width="10" height="10" viewBox="0 0 10 10" fill="none" xmlns="http://www.w3.org/2000/svg">
<path d="M1.02235 3.30811C1.13955 3.19094 1.29849 3.12512 1.46422 3.12512C1.62995 3.12512 1.78889 3.19094 1.9061 3.30811L4.99985 6.40186L8.09359 3.30811C8.21147 3.19426 8.36935 3.13127 8.53322 3.13269C8.69709 3.13412 8.85385 3.19985 8.96973 3.31573C9.08561 3.43161 9.15134 3.58836 9.15277 3.75224C9.15419 3.91611 9.09119 4.07399 8.97734 4.19186L5.44172 7.72749C5.32452 7.84466 5.16557 7.91048 4.99985 7.91048C4.83412 7.91048 4.67518 7.84466 4.55797 7.72749L1.02235 4.19186C0.905178 4.07466 0.839355 3.91572 0.839355 3.74999C0.839355 3.58426 0.905178 3.42532 1.02235 3.30811Z" fill="black" fill-opacity="0.75"/>
</svg>
