<svg width="10" height="10" viewBox="0 0 10 10" fill="none" xmlns="http://www.w3.org/2000/svg">
<path d="M8.97765 6.69201C8.86045 6.80918 8.70151 6.875 8.53578 6.875C8.37005 6.875 8.21111 6.80918 8.0939 6.69201L5.00015 3.59826L1.90641 6.69201C1.78853 6.80586 1.63065 6.86885 1.46678 6.86743C1.30291 6.86601 1.14615 6.80028 1.03027 6.6844C0.914389 6.56852 0.84866 6.41176 0.847235 6.24788C0.845811 6.08401 0.908808 5.92614 1.02266 5.80826L4.55828 2.27263C4.67548 2.15546 4.83443 2.08964 5.00015 2.08964C5.16588 2.08964 5.32482 2.15546 5.44203 2.27263L8.97765 5.80826C9.09482 5.92546 9.16064 6.08441 9.16064 6.25013C9.16064 6.41586 9.09482 6.5748 8.97765 6.69201Z" fill="white"/>
</svg>
