<svg width="24" height="24" viewBox="0 0 24 24" fill="none" xmlns="http://www.w3.org/2000/svg">
<g clip-path="url(#clip0_548_1708)">
<path d="M23.922 21.3431C23.922 22.0269 23.6504 22.6827 23.1669 23.1663C22.6834 23.6498 22.0277 23.9215 21.3439 23.9216H2.57813C1.89433 23.9215 1.23857 23.6498 0.755093 23.1663C0.271611 22.6827 -7.23144e-09 22.0269 0 21.3431L0 2.57812C0.000298134 1.89446 0.272017 1.23887 0.755445 0.755445C1.23887 0.272017 1.89446 0.000298134 2.57813 0L21.3439 0C22.0276 0.000198808 22.6832 0.271886 23.1667 0.755335C23.6501 1.23878 23.9218 1.89442 23.922 2.57812V21.3431Z" fill="#58AB60"/>
<path d="M20.1993 5.30261C19.8474 5.00202 19.3905 4.85347 18.929 4.88961C18.4676 4.92576 18.0394 5.14363 17.7385 5.49536L10.2235 14.2842L6.18067 10.9092C6.02062 10.7716 5.8348 10.6671 5.63401 10.6018C5.43322 10.5366 5.22147 10.5119 5.01107 10.5293C4.80066 10.5466 4.5958 10.6056 4.40839 10.7028C4.22098 10.8 4.05476 10.9335 3.91939 11.0955C3.78402 11.2575 3.68221 11.4448 3.61987 11.6465C3.55752 11.8482 3.5359 12.0603 3.55624 12.2704C3.57659 12.4805 3.6385 12.6845 3.73838 12.8705C3.83826 13.0565 3.97411 13.2208 4.13805 13.3539L9.55455 17.8764C9.72157 18.0156 9.91547 18.119 10.1242 18.18C10.3329 18.241 10.5519 18.2584 10.7677 18.2311C10.9965 18.2134 11.2195 18.1508 11.4241 18.0468C11.6286 17.9428 11.8107 17.7995 11.9598 17.6251L20.3909 7.76261C20.6912 7.41049 20.8395 6.95363 20.8033 6.49229C20.7671 6.03095 20.5493 5.60282 20.1978 5.30185" fill="white"/>
</g>
<defs>
<clipPath id="clip0_548_1708">
<rect width="24" height="24" fill="white"/>
</clipPath>
</defs>
</svg>
