<svg width="196" height="196" viewBox="0 0 196 196" fill="none" xmlns="http://www.w3.org/2000/svg">
<path d="M87.8002 103.887V92.0067L88.5742 92.8527H84.9562V91.2867H89.5822V103.887H87.8002ZM94.4623 103.887V92.0067L95.2363 92.8527H91.6183V91.2867H96.2443V103.887H94.4623ZM98.8205 100.791V99.5307L105.264 91.2867H107.208L100.818 99.5307L99.9005 99.2427H109.962V100.791H98.8205ZM105.822 103.887V100.791L105.876 99.2427V96.5067H107.568V103.887H105.822Z" fill="black" fill-opacity="0.75"/>
<path d="M73.9224 3.00385C82.4654 0.838551 91.2614 -0.16447 100.073 0.0219192L98.9949 50.9705C94.7655 50.8811 90.5434 51.3625 86.4427 52.4019L73.9224 3.00385Z" fill="#D9D9D9"/>
<path d="M75.4257 2.63544C51.0814 8.39811 29.8627 23.2527 16.1175 44.1553C2.37222 65.0579 -2.85873 90.4258 1.49649 115.061C5.8517 139.696 19.4633 161.733 39.5421 176.655C59.6209 191.578 84.6466 198.257 109.491 195.324C134.335 192.391 157.117 180.067 173.169 160.878C189.22 141.689 197.325 117.089 195.823 92.1167C194.321 67.1448 183.326 43.6927 165.091 26.566C146.856 9.43936 122.761 -0.0650641 97.7438 0.000334864L97.877 50.9602C109.885 50.9288 121.451 55.4909 130.204 63.7117C138.957 71.9325 144.234 83.1895 144.955 95.176C145.676 107.163 141.786 118.971 134.081 128.182C126.376 137.392 115.441 143.307 103.516 144.715C91.5904 146.124 79.5781 142.918 69.9402 135.755C60.3024 128.592 53.7688 118.014 51.6783 106.189C49.5878 94.3644 52.0987 82.1878 58.6964 72.1546C65.2941 62.1213 75.4791 54.9911 87.1643 52.225L75.4257 2.63544Z" fill="#737373"/>
</svg>
