<svg width="196" height="196" viewBox="0 0 196 196" fill="none" xmlns="http://www.w3.org/2000/svg">
<path d="M86.2094 103.887V92.0067L86.9834 92.8527H83.3654V91.2867H87.9914V103.887H86.2094ZM94.5995 104.031C93.7115 104.031 92.8475 103.893 92.0075 103.617C91.1795 103.341 90.5015 102.969 89.9735 102.501L90.8015 101.079C91.2215 101.475 91.7675 101.799 92.4395 102.051C93.1115 102.303 93.8315 102.429 94.5995 102.429C95.5355 102.429 96.2615 102.231 96.7775 101.835C97.3055 101.427 97.5695 100.881 97.5695 100.197C97.5695 99.5367 97.3175 99.0087 96.8135 98.6127C96.3215 98.2047 95.5355 98.0007 94.4555 98.0007H93.4475V96.7407L97.1915 92.1327L97.4435 92.8527H90.5495V91.2867H98.8655V92.5107L95.1395 97.1007L94.2035 96.5427H94.7975C96.3215 96.5427 97.4615 96.8847 98.2175 97.5687C98.9855 98.2527 99.3695 99.1227 99.3695 100.179C99.3695 100.887 99.1955 101.535 98.8475 102.123C98.4995 102.711 97.9715 103.179 97.2635 103.527C96.5675 103.863 95.6795 104.031 94.5995 104.031ZM105.962 104.031C104.942 104.031 104.06 103.881 103.316 103.581C102.572 103.281 101.996 102.855 101.588 102.303C101.18 101.739 100.976 101.079 100.976 100.323C100.976 99.5787 101.168 98.9487 101.552 98.4327C101.948 97.9047 102.518 97.5087 103.262 97.2447C104.006 96.9687 104.906 96.8307 105.962 96.8307C107.018 96.8307 107.918 96.9687 108.662 97.2447C109.418 97.5087 109.994 97.9047 110.39 98.4327C110.786 98.9607 110.984 99.5907 110.984 100.323C110.984 101.079 110.78 101.739 110.372 102.303C109.964 102.855 109.382 103.281 108.626 103.581C107.87 103.881 106.982 104.031 105.962 104.031ZM105.962 102.573C106.97 102.573 107.756 102.369 108.32 101.961C108.896 101.541 109.184 100.977 109.184 100.269C109.184 99.5727 108.896 99.0267 108.32 98.6307C107.756 98.2227 106.97 98.0187 105.962 98.0187C104.966 98.0187 104.186 98.2227 103.622 98.6307C103.058 99.0267 102.776 99.5727 102.776 100.269C102.776 100.977 103.058 101.541 103.622 101.961C104.186 102.369 104.966 102.573 105.962 102.573ZM105.962 97.8027C105.002 97.8027 104.186 97.6767 103.514 97.4247C102.842 97.1607 102.326 96.7887 101.966 96.3087C101.606 95.8167 101.426 95.2347 101.426 94.5627C101.426 93.8547 101.612 93.2487 101.984 92.7447C102.368 92.2287 102.902 91.8327 103.586 91.5567C104.27 91.2807 105.062 91.1427 105.962 91.1427C106.874 91.1427 107.672 91.2807 108.356 91.5567C109.04 91.8327 109.574 92.2287 109.958 92.7447C110.342 93.2487 110.534 93.8547 110.534 94.5627C110.534 95.2347 110.354 95.8167 109.994 96.3087C109.634 96.7887 109.112 97.1607 108.428 97.4247C107.744 97.6767 106.922 97.8027 105.962 97.8027ZM105.962 96.6507C106.838 96.6507 107.522 96.4707 108.014 96.1107C108.518 95.7507 108.77 95.2587 108.77 94.6347C108.77 93.9987 108.512 93.5007 107.996 93.1407C107.48 92.7807 106.802 92.6007 105.962 92.6007C105.122 92.6007 104.45 92.7807 103.946 93.1407C103.454 93.5007 103.208 93.9987 103.208 94.6347C103.208 95.2587 103.448 95.7507 103.928 96.1107C104.42 96.4707 105.098 96.6507 105.962 96.6507Z" fill="black" fill-opacity="0.75"/>
<path d="M28.7035 28.7035C37.8037 19.6034 48.6071 12.3848 60.497 7.45981C72.3869 2.53485 85.1305 -1.53468e-07 98 0V50.96C91.8226 50.96 85.7057 52.1767 79.9986 54.5407C74.2914 56.9047 69.1058 60.3696 64.7377 64.7377L28.7035 28.7035Z" fill="#D9D9D9"/>
<path d="M28.7035 28.7035C12.6714 44.7356 2.69422 65.8307 0.471896 88.3943C-1.75043 110.958 3.91964 133.594 16.516 152.446C29.1123 171.298 47.8556 185.199 69.5521 191.78C91.2486 198.362 114.556 197.217 135.503 188.54C156.45 179.864 173.74 164.193 184.428 144.197C195.116 124.201 198.54 101.118 194.117 78.8811C189.694 56.644 177.697 36.6285 160.171 22.245C142.644 7.8615 120.673 1.71175e-06 98 0L98 50.96C108.883 50.96 119.429 54.7335 127.842 61.6376C136.255 68.5417 142.013 78.1491 144.136 88.823C146.259 99.4968 144.616 110.577 139.486 120.174C134.355 129.772 126.056 137.295 116.001 141.459C105.947 145.624 94.7593 146.174 84.345 143.014C73.9307 139.855 64.9339 133.183 58.8877 124.134C52.8414 115.085 50.1198 104.22 51.1865 93.3893C52.2532 82.5587 57.0423 72.4331 64.7377 64.7377L28.7035 28.7035Z" fill="#737373"/>
</svg>
