<svg width="195" height="195" viewBox="0 0 195 195" fill="none" xmlns="http://www.w3.org/2000/svg">
<path d="M92.4955 103.443V102.219L97.6255 97.2694C98.0815 96.8374 98.4175 96.4594 98.6335 96.1354C98.8615 95.7994 99.0115 95.4934 99.0835 95.2174C99.1675 94.9294 99.2095 94.6534 99.2095 94.3894C99.2095 93.7414 98.9815 93.2314 98.5255 92.8594C98.0695 92.4874 97.4035 92.3014 96.5275 92.3014C95.8555 92.3014 95.2495 92.4154 94.7095 92.6434C94.1695 92.8594 93.7015 93.2014 93.3055 93.6694L92.0815 92.6074C92.5615 91.9954 93.2035 91.5274 94.0075 91.2034C94.8235 90.8674 95.7175 90.6994 96.6895 90.6994C97.5655 90.6994 98.3275 90.8434 98.9755 91.1314C99.6235 91.4074 100.121 91.8094 100.469 92.3374C100.829 92.8654 101.009 93.4894 101.009 94.2094C101.009 94.6174 100.955 95.0194 100.847 95.4154C100.739 95.8114 100.535 96.2314 100.235 96.6754C99.9355 97.1194 99.5035 97.6174 98.9395 98.1694L94.3675 102.579L93.9355 101.877H101.549V103.443H92.4955Z" fill="black" fill-opacity="0.75"/>
<path d="M195 97.5C195 151.348 151.348 195 97.5 195C43.6522 195 0 151.348 0 97.5C0 43.6522 43.6522 0 97.5 0C151.348 0 195 43.6522 195 97.5ZM50.7 97.5C50.7 123.347 71.6531 144.3 97.5 144.3C123.347 144.3 144.3 123.347 144.3 97.5C144.3 71.6531 123.347 50.7 97.5 50.7C71.6531 50.7 50.7 71.6531 50.7 97.5Z" fill="#D9D9D9"/>
<path d="M97.5 0C101.054 4.23824e-08 104.606 0.194334 108.138 0.582133L102.606 50.9794C100.911 50.7933 99.206 50.7 97.5 50.7V0Z" fill="#737373"/>
</svg>
