<svg width="24" height="24" viewBox="0 0 24 24" fill="none" xmlns="http://www.w3.org/2000/svg">
<path d="M22.5 12H18.75L18.75 1.5H22.5L22.5 12ZM6.75 1.5L17.25 1.5L17.25 12.6023L14.9685 16.0245L14.3348 20.4622C14.2822 20.819 14.1034 21.1452 13.831 21.3814C13.5585 21.6177 13.2104 21.7485 12.8498 21.75H12.75C12.1534 21.7494 11.5815 21.5122 11.1597 21.0903C10.7378 20.6685 10.5006 20.0966 10.5 19.5V15H4.5C3.70465 14.999 2.94217 14.6826 2.37978 14.1202C1.81738 13.5578 1.50099 12.7953 1.5 12L1.5 6.75C1.50159 5.3581 2.05522 4.02367 3.03944 3.03944C4.02367 2.05522 5.3581 1.50159 6.75 1.5Z" fill="#D9D9D9"/>
</svg>
