<svg width="10" height="10" viewBox="0 0 10 10" fill="none" xmlns="http://www.w3.org/2000/svg">
<path d="M6.69201 1.02253C6.80918 1.13973 6.875 1.29868 6.875 1.4644C6.875 1.63013 6.80918 1.78907 6.69201 1.90628L3.59826 5.00003L6.69201 8.09378C6.80586 8.21165 6.86885 8.36953 6.86743 8.5334C6.86601 8.69728 6.80028 8.85403 6.6844 8.96991C6.56852 9.08579 6.41176 9.15152 6.24788 9.15295C6.08401 9.15437 5.92614 9.09138 5.80826 8.97753L2.27263 5.4419C2.15546 5.3247 2.08964 5.16576 2.08964 5.00003C2.08964 4.8343 2.15546 4.67536 2.27263 4.55815L5.80826 1.02253C5.92546 0.905361 6.08441 0.839539 6.25013 0.839539C6.41586 0.839539 6.5748 0.905361 6.69201 1.02253Z" fill="black" fill-opacity="0.75"/>
</svg>
