<svg width="22" height="22" viewBox="0 0 22 22" fill="none" xmlns="http://www.w3.org/2000/svg">
<path d="M14.9998 21.6998H20.4998C21.1998 21.6998 21.6998 21.1998 21.6998 20.4998V1.4998C21.6998 0.799805 21.1998 0.299805 20.4998 0.299805H1.4998C0.799805 0.299805 0.299805 0.799805 0.299805 1.4998V20.4998C0.299805 21.1998 0.799805 21.6998 1.4998 21.6998H11.2998V13.3998H8.5998V9.9998H11.2998V7.6998C11.2998 4.8998 12.9998 3.3998 15.4998 3.3998C16.2998 3.3998 17.1998 3.3998 17.9998 3.4998V6.3998H16.3998C15.0998 6.3998 14.9998 6.9998 14.9998 7.9998V9.9998H17.8998L17.4998 13.2998H14.9998V21.6998Z" fill="#3C5A99"/>
</svg>
