<svg width="22" height="22" viewBox="0 0 22 22" fill="none" xmlns="http://www.w3.org/2000/svg">
<path d="M10.9998 2.2998C13.7998 2.2998 14.1998 2.2998 15.2998 2.3998C15.9998 2.3998 16.5998 2.4998 17.2998 2.7998C18.1998 3.1998 18.9998 3.8998 19.2998 4.7998C19.4998 5.3998 19.6998 6.0998 19.6998 6.7998C19.7998 7.8998 19.7998 8.2998 19.7998 11.0998C19.7998 13.8998 19.7998 14.2998 19.6998 15.3998C19.6998 16.0998 19.5998 16.6998 19.2998 17.3998C18.8998 18.2998 18.1998 19.0998 17.2998 19.3998C16.6998 19.5998 15.9998 19.7998 15.2998 19.7998C14.1998 19.8998 13.7998 19.8998 10.9998 19.8998C8.1998 19.8998 7.7998 19.8998 6.6998 19.7998C5.9998 19.7998 5.3998 19.6998 4.6998 19.3998C3.7998 18.9998 2.9998 18.2998 2.6998 17.3998C2.4998 16.7998 2.2998 16.0998 2.2998 15.3998C2.1998 14.2998 2.1998 13.8998 2.1998 11.0998C2.1998 8.2998 2.1998 7.8998 2.2998 6.7998C2.2998 6.0998 2.3998 5.4998 2.6998 4.7998C3.0998 3.8998 3.7998 3.0998 4.6998 2.7998C5.2998 2.5998 5.9998 2.3998 6.6998 2.3998C7.7998 2.2998 8.1998 2.2998 10.9998 2.2998ZM10.9998 0.299805C8.0998 0.299805 7.6998 0.299805 6.5998 0.399805C5.6998 0.399805 4.7998 0.599805 3.9998 0.899805C2.5998 1.3998 1.3998 2.5998 0.899805 3.9998C0.599805 4.7998 0.399805 5.6998 0.399805 6.5998C0.299805 7.6998 0.299805 8.0998 0.299805 10.9998C0.299805 13.8998 0.299805 14.2998 0.399805 15.3998C0.399805 16.2998 0.599805 17.1998 0.899805 17.9998C1.4998 19.3998 2.5998 20.5998 3.9998 21.0998C4.7998 21.3998 5.6998 21.5998 6.5998 21.5998C7.6998 21.6998 8.0998 21.6998 10.9998 21.6998C13.8998 21.6998 14.2998 21.6998 15.3998 21.5998C16.2998 21.5998 17.1998 21.3998 17.9998 21.0998C19.3998 20.4998 20.5998 19.3998 21.0998 17.9998C21.3998 17.1998 21.5998 16.2998 21.5998 15.3998C21.6998 14.2998 21.6998 13.8998 21.6998 10.9998C21.6998 8.0998 21.6998 7.6998 21.5998 6.5998C21.5998 5.6998 21.3998 4.7998 21.0998 3.9998C20.4998 2.5998 19.3998 1.3998 17.9998 0.899805C17.1998 0.599805 16.2998 0.399805 15.3998 0.399805C14.2998 0.299805 13.8998 0.299805 10.9998 0.299805ZM10.9998 5.4998C7.9998 5.4998 5.4998 7.9998 5.4998 10.9998C5.4998 13.9998 7.9998 16.4998 10.9998 16.4998C13.9998 16.4998 16.4998 13.9998 16.4998 10.9998C16.4998 7.9998 13.9998 5.4998 10.9998 5.4998ZM10.9998 14.5998C8.9998 14.5998 7.3998 12.9998 7.3998 10.9998C7.3998 8.9998 8.9998 7.3998 10.9998 7.3998C12.9998 7.3998 14.5998 8.9998 14.5998 10.9998C14.5998 12.9998 12.9998 14.5998 10.9998 14.5998ZM16.6998 3.9998C17.3998 3.9998 17.9998 4.5998 17.9998 5.2998C17.9998 5.9998 17.3998 6.5998 16.6998 6.5998C15.9998 6.5998 15.3998 5.9998 15.3998 5.2998C15.3998 4.5998 15.9998 3.9998 16.6998 3.9998Z" fill="black"/>
</svg>
