<svg width="22" height="21" viewBox="0 0 22 21" fill="none" xmlns="http://www.w3.org/2000/svg">
<path d="M0.5 10H4.25V20.5H0.5V10ZM16.25 20.5H5.75V9.39775L8.0315 5.9755L8.66525 1.53775C8.71782 1.18096 8.89655 0.854842 9.16901 0.61857C9.44148 0.382298 9.78961 0.251531 10.1502 0.25H10.25C10.8466 0.250596 11.4185 0.48784 11.8403 0.909668C12.2622 1.3315 12.4994 1.90345 12.5 2.5V7H18.5C19.2953 7.00099 20.0578 7.31738 20.6202 7.87978C21.1826 8.44217 21.499 9.20466 21.5 10V15.25C21.4984 16.6419 20.9448 17.9763 19.9606 18.9606C18.9763 19.9448 17.6419 20.4984 16.25 20.5V20.5Z" fill="#D9D9D9"/>
</svg>
