<svg width="22" height="22" viewBox="0 0 22 22" fill="none" xmlns="http://www.w3.org/2000/svg">
<path d="M19.9998 0.299805H1.7998C0.899805 0.299805 0.299805 0.799804 0.299805 1.5998V19.8998C0.299805 20.6998 0.899805 21.5998 1.7998 21.5998H19.9998C20.8998 21.4998 21.5998 20.7998 21.6998 19.8998V1.6998C21.6998 0.799804 20.8998 0.299805 19.9998 0.299805ZM6.6998 18.2998H3.6998V8.2998H6.6998V18.2998ZM4.9998 6.6998C3.9998 6.6998 3.1998 5.8998 3.1998 4.8998C3.1998 3.8998 3.9998 3.0998 4.9998 3.0998C5.9998 3.0998 6.7998 3.8998 6.7998 4.8998C6.7998 5.8998 5.9998 6.6998 4.9998 6.6998ZM18.2998 18.2998H15.2998V13.2998C15.2998 12.0998 15.3998 10.5998 13.7998 10.5998C12.1998 10.5998 11.9998 11.8998 11.9998 13.1998V18.2998H8.6998V8.2998H11.6998V9.5998C12.2998 8.5998 13.3998 7.8998 14.6998 7.8998C17.8998 7.8998 18.4998 9.89981 18.4998 12.6998V18.2998H18.2998Z" fill="#0178B6"/>
</svg>
