<svg width="22" height="22" viewBox="0 0 22 22" fill="none" xmlns="http://www.w3.org/2000/svg">
<path d="M10.9998 0.299805C5.0998 0.299805 0.299805 5.0998 0.299805 10.9998C0.299805 15.3998 2.9998 19.2998 7.0998 20.8998C6.9998 19.8998 6.9998 18.8998 7.0998 17.7998C7.2998 16.9998 8.3998 12.4998 8.3998 12.4998C8.1998 11.9998 8.0998 11.4998 8.0998 10.8998C8.0998 9.3998 8.9998 8.2998 9.9998 8.2998C10.8998 8.2998 11.2998 8.9998 11.2998 9.7998C11.2998 10.6998 10.6998 12.0998 10.3998 13.3998C10.1998 14.1998 10.6998 15.0998 11.4998 15.2998C11.5998 15.2998 11.7998 15.3998 11.9998 15.2998C13.8998 15.2998 15.3998 13.2998 15.3998 10.3998C15.3998 7.7998 13.5998 6.0998 10.8998 6.0998C7.8998 6.0998 6.0998 8.3998 6.0998 10.6998C6.0998 11.5998 6.3998 12.3998 6.8998 13.0998C6.9998 13.1998 6.9998 13.2998 6.9998 13.3998C6.8998 13.6998 6.6998 14.4998 6.6998 14.5998C6.6998 14.7998 6.4998 14.7998 6.2998 14.6998C4.9998 14.0998 4.0998 12.0998 4.0998 10.5998C4.0998 7.1998 6.4998 4.0998 11.0998 4.0998C14.7998 4.0998 17.6998 6.6998 17.6998 10.2998C17.6998 13.9998 15.3998 16.8998 12.1998 16.8998C11.0998 16.8998 10.0998 16.2998 9.7998 15.6998C9.7998 15.6998 9.2998 17.6998 9.0998 18.1998C8.7998 19.1998 8.2998 20.0998 7.7998 20.9998C13.3998 22.6998 19.3998 19.5998 21.1998 13.9998C22.8998 8.39981 19.7998 2.3998 14.1998 0.599804C13.0998 0.499804 12.0998 0.299805 10.9998 0.299805Z" fill="#E41E25"/>
</svg>
