<svg width="24" height="16" viewBox="0 0 24 16" fill="none" xmlns="http://www.w3.org/2000/svg">
<path d="M23.8 3.5C23.8 3.5 23.6 1.9 22.8 1.2C22.1 0.6 21.3 0.2 20.4 0.2C17 -1.93715e-07 12 0 12 0C12 0 7 -1.93715e-07 3.6 0.2C2.7 0.2 1.8 0.5 1.2 1.2C0.5 1.9 0.2 3.5 0.2 3.5C0.0999998 4.7 0 5.9 0 7.1V8.8C0 10 0.0999998 11.3 0.2 12.5C0.2 12.5 0.4 14.1 1.2 14.8C2.1 15.7 3.3 15.7 3.8 15.8C5.8 15.9 12 16 12 16C12 16 17 16 20.4 15.8C21.3 15.8 22.2 15.5 22.8 14.8C23.5 14.1 23.8 12.5 23.8 12.5C23.9 11.3 24 10 24 8.8V7.1C24 5.9 23.9 4.7 23.8 3.5ZM9.5 11V4.6L16 7.8L9.5 11Z" fill="#BF171D"/>
</svg>
