<svg width="86" height="18" viewBox="0 0 86 18" fill="none" xmlns="http://www.w3.org/2000/svg">
<path d="M7.5616 2.92705C7.86095 2.00574 9.16436 2.00574 9.46371 2.92705L10.1994 5.19112C10.3332 5.60314 10.7172 5.8821 11.1504 5.8821H13.531C14.4997 5.8821 14.9025 7.12172 14.1188 7.69112L12.1928 9.09039C11.8424 9.34503 11.6957 9.7964 11.8296 10.2084L12.5652 12.4725C12.8646 13.3938 11.8101 14.1599 11.0264 13.5905L9.10044 12.1913C8.74996 11.9366 8.27536 11.9366 7.92487 12.1913L5.99894 13.5905C5.21523 14.1599 4.16075 13.3938 4.4601 12.4725L5.19574 10.2084C5.32961 9.7964 5.18296 9.34503 4.83247 9.09039L2.90654 7.69112C2.12282 7.12172 2.5256 5.8821 3.49432 5.8821H5.87491C6.30813 5.8821 6.69209 5.60314 6.82596 5.19112L7.5616 2.92705Z" fill="#FFA000"/>
<path d="M24.587 2.92705C24.8863 2.00574 26.1898 2.00574 26.4891 2.92705L27.2247 5.19112C27.3586 5.60314 27.7426 5.8821 28.1758 5.8821H30.5564C31.5251 5.8821 31.9279 7.12172 31.1442 7.69112L29.2182 9.09039C28.8678 9.34503 28.7211 9.7964 28.855 10.2084L29.5906 12.4725C29.89 13.3938 28.8355 14.1599 28.0518 13.5905L26.1258 12.1913C25.7753 11.9366 25.3008 11.9366 24.9503 12.1913L23.0243 13.5905C22.2406 14.1599 21.1861 13.3938 21.4855 12.4725L22.2211 10.2084C22.355 9.7964 22.2083 9.34503 21.8579 9.09039L19.9319 7.69112C19.1482 7.12172 19.551 5.8821 20.5197 5.8821H22.9003C23.3335 5.8821 23.7175 5.60314 23.8514 5.19112L24.587 2.92705Z" fill="#FFA000"/>
<path d="M41.6114 2.92705C41.9108 2.00574 43.2142 2.00574 43.5135 2.92705L44.2492 5.19112C44.383 5.60314 44.767 5.8821 45.2002 5.8821H47.5808C48.5495 5.8821 48.9523 7.12172 48.1686 7.69112L46.2427 9.09039C45.8922 9.34503 45.7455 9.7964 45.8794 10.2084L46.615 12.4725C46.9144 13.3938 45.8599 14.1599 45.0762 13.5905L43.1502 12.1913C42.7998 11.9366 42.3252 11.9366 41.9747 12.1913L40.0487 13.5905C39.265 14.1599 38.2106 13.3938 38.5099 12.4725L39.2455 10.2084C39.3794 9.7964 39.2328 9.34503 38.8823 9.09039L36.9563 7.69112C36.1726 7.12172 36.5754 5.8821 37.5441 5.8821H39.9247C40.3579 5.8821 40.7419 5.60314 40.8758 5.19112L41.6114 2.92705Z" fill="#FFA000"/>
<path d="M58.6378 2.92705C58.9371 2.00574 60.2405 2.00574 60.5399 2.92705L61.2755 5.19112C61.4094 5.60314 61.7934 5.8821 62.2266 5.8821H64.6072C65.5759 5.8821 65.9787 7.12172 65.195 7.69112L63.269 9.09039C62.9185 9.34503 62.7719 9.7964 62.9057 10.2084L63.6414 12.4725C63.9407 13.3938 62.8863 14.1599 62.1025 13.5905L60.1766 12.1913C59.8261 11.9366 59.3515 11.9366 59.001 12.1913L57.0751 13.5905C56.2914 14.1599 55.2369 13.3938 55.5363 12.4725L56.2719 10.2084C56.4058 9.7964 56.2591 9.34503 55.9086 9.09039L53.9827 7.69112C53.199 7.12172 53.6018 5.8821 54.5705 5.8821H56.9511C57.3843 5.8821 57.7683 5.60314 57.9021 5.19112L58.6378 2.92705Z" fill="#FFA000"/>
<path d="M75.6632 2.92705C75.9625 2.00574 77.2659 2.00574 77.5653 2.92705L78.3009 5.19112C78.4348 5.60314 78.8187 5.8821 79.252 5.8821H81.6326C82.6013 5.8821 83.0041 7.12172 82.2203 7.69112L80.2944 9.09039C79.9439 9.34503 79.7973 9.7964 79.9311 10.2084L80.6668 12.4725C80.9661 13.3938 79.9117 14.1599 79.1279 13.5905L77.202 12.1913C76.8515 11.9366 76.3769 11.9366 76.0264 12.1913L74.1005 13.5905C73.3168 14.1599 72.2623 13.3938 72.5617 12.4725L73.2973 10.2084C73.4312 9.7964 73.2845 9.34503 72.934 9.09039L71.0081 7.69112C70.2244 7.12172 70.6272 5.8821 71.5959 5.8821H73.9765C74.4097 5.8821 74.7936 5.60314 74.9275 5.19112L75.6632 2.92705Z" fill="#FFA000"/>
</svg>
