<svg width="135" height="40" viewBox="0 0 135 40" fill="none" xmlns="http://www.w3.org/2000/svg">
<g clip-path="url(#clip0_323_2973)">
<path d="M128 40H7C3.2 40 0 36.8 0 33V7C0 3.1 3.2 0 7 0H128C131.9 0 135 3.2 135 7V33C135 36.9 131.9 40 128 40Z" fill="black"/>
<path d="M28.9 19.2C28.9 17.4 29.9 15.7 31.4 14.7C30.4 13.3 28.8 12.4 27.1 12.4C25.3 12.2 23.5 13.5 22.6 13.5C21.7 13.5 20.2 12.4 18.7 12.5C16.7 12.6 14.8 13.7 13.9 15.4C11.8 19 13.4 24.3 15.4 27.3C16.4 28.7 17.6 30.3 19.1 30.3C20.6 30.2 21.2 29.3 23 29.3C24.8 29.3 25.3 30.3 26.9 30.2C28.5 30.2 29.5 28.8 30.5 27.3C31.2 26.3 31.8 25.2 32.1 24C30.2 23.2 28.9 21.3 28.9 19.2ZM26 10.5C26.9 9.4 27.3 8.1 27.2 6.7C25.9 6.8 24.6 7.5 23.7 8.5C22.8 9.5 22.4 10.8 22.5 12.1C23.8 12.2 25.1 11.6 26 10.5ZM49.9 26.6H44.8L43.6 30.2H41.4L46.2 16.8H48.5L53.3 30.2H51.1L49.9 26.6ZM45.3 25H49.4L47.4 19.1H47.3L45.3 25ZM63.8 25.4C63.8 28.4 62.2 30.4 59.7 30.4C58.4 30.5 57.2 29.8 56.6 28.7V33.5H54.6V20.5H56.5V22.1C57.1 21 58.3 20.3 59.6 20.4C62.1 20.4 63.8 22.3 63.8 25.4ZM61.7 25.4C61.7 23.4 60.7 22.1 59.1 22.1C57.6 22.1 56.5 23.4 56.5 25.4C56.5 27.4 57.5 28.7 59.1 28.7C60.7 28.7 61.7 27.4 61.7 25.4ZM74.5 25.4C74.5 28.4 72.9 30.4 70.4 30.4C69.1 30.5 67.9 29.8 67.3 28.7V33.5H65.3V20.5H67.2V22.1C67.8 21 69 20.3 70.3 20.4C72.9 20.4 74.5 22.3 74.5 25.4ZM72.5 25.4C72.5 23.4 71.5 22.1 69.9 22.1C68.4 22.1 67.3 23.4 67.3 25.4C67.3 27.4 68.3 28.7 69.9 28.7C71.4 28.7 72.5 27.4 72.5 25.4ZM81.6 26.5C81.7 27.8 83 28.7 84.8 28.7C86.5 28.7 87.7 27.8 87.7 26.6C87.7 25.6 87 24.9 85.2 24.5L83.5 24.1C81 23.5 79.9 22.4 79.9 20.5C79.9 18.2 81.9 16.6 84.8 16.6C87.6 16.6 89.6 18.2 89.6 20.5H87.6C87.5 19.2 86.4 18.4 84.8 18.4C83.2 18.4 82.1 19.2 82.1 20.4C82.1 21.3 82.8 21.9 84.5 22.3L86 22.7C88.8 23.4 89.9 24.5 89.9 26.4C89.9 28.9 87.9 30.5 84.7 30.5C81.7 30.5 79.7 29 79.6 26.5H81.6ZM94.2 18.2V20.5H96.1V22.1H94.2V27.5C94.2 28.3 94.6 28.7 95.4 28.7H96.1V30.3C95.7 30.4 95.4 30.4 95 30.4C93 30.4 92.2 29.7 92.2 27.8V22.2H90.8V20.6H92.2V18.3H94.2V18.2ZM97.1 25.4C97.1 22.3 98.9 20.4 101.7 20.4C104.5 20.4 106.3 22.3 106.3 25.4C106.3 28.5 104.5 30.4 101.7 30.4C98.9 30.4 97.1 28.5 97.1 25.4ZM104.4 25.4C104.4 23.3 103.4 22 101.8 22C100.2 22 99.2 23.3 99.2 25.4C99.2 27.5 100.2 28.8 101.8 28.8C103.4 28.8 104.4 27.5 104.4 25.4ZM108.1 20.5H110V22.2C110.3 21.1 111.2 20.4 112.4 20.4C112.6 20.4 112.9 20.4 113.1 20.5V22.4C112.8 22.3 112.5 22.3 112.2 22.3C111.1 22.3 110.1 23.1 110.1 24.2V30.3H108.1V20.5ZM122.3 27.4C122 29.2 120.3 30.4 118.1 30.4C115.3 30.4 113.5 28.5 113.5 25.4C113.5 22.3 115.3 20.3 118 20.3C120.7 20.3 122.4 22.2 122.4 25.1V25.8H115.5V26C115.4 27.4 116.4 28.6 117.8 28.8H118.1C119.1 28.9 120 28.3 120.4 27.4H122.3ZM115.5 24.5H120.4C120.5 23.2 119.5 22.1 118.2 22H118C116.7 22 115.5 23.1 115.5 24.5ZM45.2 6.9C46.3 6.8 47.2 7.7 47.3 8.8V9C47.3 10.1 46.5 11 45.4 11.1H43.8V13.2H42.8V6.9H45.2ZM43.7 10.2H44.9C45.7 10.2 46.2 9.8 46.2 9C46.2 8.2 45.7 7.8 44.9 7.8H43.7V10.2ZM48.1 10.8C48 9.6 48.9 8.5 50.1 8.4C51.3 8.3 52.4 9.2 52.5 10.4V10.8C52.6 12 51.7 13.1 50.5 13.2C49.3 13.3 48.2 12.4 48.1 11.2V10.8ZM51.6 10.8C51.6 9.8 51.1 9.2 50.3 9.2C49.5 9.2 49 9.8 49 10.8C49 11.8 49.5 12.4 50.3 12.4C51.2 12.5 51.6 11.9 51.6 10.8ZM54.8 12.4L54.7 13.1H53.8V6.6H54.7V9.2H54.8C55.1 8.7 55.7 8.3 56.3 8.4C57.5 8.4 58.3 9.3 58.3 10.8C58.3 12.3 57.5 13.2 56.3 13.2C55.7 13.3 55.1 13 54.8 12.4ZM54.8 10.8C54.8 11.8 55.3 12.4 56.1 12.4C56.9 12.4 57.4 11.8 57.4 10.8C57.4 9.8 56.9 9.2 56.1 9.2C55.3 9.2 54.8 9.8 54.8 10.8ZM59.4 7.1C59.4 6.8 59.6 6.5 60 6.5C60.4 6.5 60.6 6.7 60.6 7.1C60.6 7.4 60.4 7.7 60 7.7C59.7 7.7 59.4 7.4 59.4 7.1ZM59.6 8.5H60.5V13.2H59.6V8.5ZM66 11.9C65.7 12.8 64.9 13.4 64 13.3C62.8 13.3 61.8 12.4 61.8 11.2V10.8C61.6 9.6 62.5 8.5 63.7 8.4H64C65.3 8.4 66.1 9.3 66.1 10.8V11.1H62.8V11.2C62.7 11.9 63.3 12.5 63.9 12.5H64C64.5 12.6 64.9 12.3 65.1 11.9H66ZM62.7 10.4H65.1C65.1 9.8 64.7 9.2 64 9.2H63.9C63.3 9.2 62.7 9.7 62.7 10.4ZM67.3 8.5H68.2V9.2H68.3C68.5 8.7 69 8.4 69.6 8.4H70V9.3C69.8 9.3 69.7 9.2 69.5 9.2C68.9 9.1 68.4 9.6 68.3 10.2V13.1H67.4L67.3 8.5ZM70.9 12.6L73.5 9.4V9.3H70.9V8.5H74.6V9.2L72.1 12.4V12.5H74.7V13.3H71V12.6H70.9ZM83.4 13.2H82.4L81.4 9.7H81.3L80.3 13.2H79.3L78 8.5H78.9L79.7 12.1H80L81 8.5H81.9L82.9 12.1H83L83.8 8.5H84.7L83.4 13.2Z" fill="white"/>
</g>
<defs>
<clipPath id="clip0_323_2973">
<rect width="135" height="40" fill="white"/>
</clipPath>
</defs>
</svg>
