<svg width="135" height="40" viewBox="0 0 135 40" fill="none" xmlns="http://www.w3.org/2000/svg">
<g clip-path="url(#clip0_323_2976)">
<path d="M130 40H5C2.2 40 0 37.7 0 35V5C0 2.2 2.3 0 5 0H130C132.8 0 135 2.3 135 5V35C135 37.8 132.8 40 130 40Z" fill="black"/>
<path d="M68.1001 21.7999C65.7001 21.7999 63.8001 23.5999 63.8001 26.0999C63.8001 28.4999 65.7001 30.3999 68.1001 30.3999C70.5001 30.3999 72.4001 28.5999 72.4001 26.0999C72.4001 23.4999 70.5001 21.7999 68.1001 21.7999ZM68.1001 28.5999C66.8001 28.5999 65.7001 27.4999 65.7001 25.9999C65.7001 24.4999 66.8001 23.3999 68.1001 23.3999C69.4001 23.3999 70.5001 24.3999 70.5001 25.9999C70.5001 27.4999 69.4001 28.5999 68.1001 28.5999ZM58.8001 21.7999C56.4001 21.7999 54.5001 23.5999 54.5001 26.0999C54.5001 28.4999 56.4001 30.3999 58.8001 30.3999C61.2001 30.3999 63.1001 28.5999 63.1001 26.0999C63.1001 23.4999 61.2001 21.7999 58.8001 21.7999ZM58.8001 28.5999C57.5001 28.5999 56.4001 27.4999 56.4001 25.9999C56.4001 24.4999 57.5001 23.3999 58.8001 23.3999C60.1001 23.3999 61.2001 24.3999 61.2001 25.9999C61.2001 27.4999 60.1001 28.5999 58.8001 28.5999ZM47.7001 23.0999V24.8999H52.0001C51.9001 25.8999 51.5001 26.6999 51.0001 27.1999C50.4001 27.7999 49.4001 28.4999 47.7001 28.4999C45.0001 28.4999 43.0001 26.3999 43.0001 23.6999C43.0001 20.9999 45.1001 18.8999 47.7001 18.8999C49.1001 18.8999 50.2001 19.4999 51.0001 20.1999L52.3001 18.8999C51.2001 17.8999 49.8001 17.0999 47.8001 17.0999C44.2001 17.0999 41.1001 20.0999 41.1001 23.6999C41.1001 27.2999 44.2001 30.2999 47.8001 30.2999C49.8001 30.2999 51.2001 29.6999 52.4001 28.3999C53.6001 27.1999 54.0001 25.4999 54.0001 24.1999C54.0001 23.7999 54.0001 23.3999 53.9001 23.0999H47.7001ZM93.1001 24.4999C92.7001 23.4999 91.7001 21.7999 89.5001 21.7999C87.3001 21.7999 85.5001 23.4999 85.5001 26.0999C85.5001 28.4999 87.3001 30.3999 89.7001 30.3999C91.6001 30.3999 92.8001 29.1999 93.2001 28.4999L91.8001 27.4999C91.3001 28.1999 90.7001 28.6999 89.7001 28.6999C88.7001 28.6999 88.1001 28.2999 87.6001 27.3999L93.3001 24.9999L93.1001 24.4999ZM87.3001 25.8999C87.3001 24.2999 88.6001 23.3999 89.5001 23.3999C90.2001 23.3999 90.9001 23.7999 91.1001 24.2999L87.3001 25.8999ZM82.6001 29.9999H84.5001V17.4999H82.6001V29.9999ZM79.6001 22.6999C79.1001 22.1999 78.3001 21.6999 77.3001 21.6999C75.2001 21.6999 73.2001 23.5999 73.2001 25.9999C73.2001 28.3999 75.1001 30.1999 77.3001 30.1999C78.3001 30.1999 79.1001 29.6999 79.5001 29.1999H79.6001V29.7999C79.6001 31.3999 78.7001 32.2999 77.3001 32.2999C76.2001 32.2999 75.4001 31.4999 75.2001 30.7999L73.6001 31.4999C74.1001 32.5999 75.3001 33.9999 77.4001 33.9999C79.6001 33.9999 81.4001 32.6999 81.4001 29.5999V21.9999H79.6001V22.6999ZM77.4001 28.5999C76.1001 28.5999 75.0001 27.4999 75.0001 25.9999C75.0001 24.4999 76.1001 23.3999 77.4001 23.3999C78.7001 23.3999 79.7001 24.4999 79.7001 25.9999C79.7001 27.4999 78.7001 28.5999 77.4001 28.5999ZM101.8 17.4999H97.3001V29.9999H99.2001V25.2999H101.8C103.9 25.2999 105.9 23.7999 105.9 21.3999C105.9 18.9999 103.9 17.4999 101.8 17.4999ZM101.9 23.4999H99.2001V19.1999H101.9C103.3 19.1999 104.1 20.3999 104.1 21.2999C104 22.3999 103.2 23.4999 101.9 23.4999ZM113.4 21.6999C112 21.6999 110.6 22.2999 110.1 23.5999L111.8 24.2999C112.2 23.5999 112.8 23.3999 113.5 23.3999C114.5 23.3999 115.4 23.9999 115.5 24.9999V25.0999C115.2 24.8999 114.4 24.5999 113.6 24.5999C111.8 24.5999 110 25.5999 110 27.3999C110 29.0999 111.5 30.1999 113.1 30.1999C114.4 30.1999 115 29.5999 115.5 28.9999H115.6V29.9999H117.4V25.1999C117.2 22.9999 115.5 21.6999 113.4 21.6999ZM113.2 28.5999C112.6 28.5999 111.7 28.2999 111.7 27.4999C111.7 26.4999 112.8 26.1999 113.7 26.1999C114.5 26.1999 114.9 26.3999 115.4 26.5999C115.2 27.7999 114.2 28.5999 113.2 28.5999ZM123.7 21.9999L121.6 27.3999H121.5L119.3 21.9999H117.3L120.6 29.5999L118.7 33.7999H120.6L125.7 21.9999H123.7ZM106.9 29.9999H108.8V17.4999H106.9V29.9999ZM42.2001 12.9999H41.4001V6.9999H43.4001C43.9001 6.9999 44.3001 7.1999 44.7001 7.4999C45.1001 7.7999 45.3001 8.2999 45.3001 8.7999C45.3001 9.2999 45.1001 9.6999 44.7001 10.0999C44.3001 10.3999 43.9001 10.5999 43.4001 10.5999H42.1001V12.9999H42.2001ZM42.2001 9.7999H43.5001C43.8001 9.7999 44.1001 9.6999 44.3001 9.4999C44.5001 9.2999 44.6001 8.9999 44.6001 8.7999C44.6001 8.5999 44.5001 8.2999 44.3001 8.0999C44.1001 7.8999 43.8001 7.7999 43.5001 7.7999H42.2001V9.7999ZM51.2001 12.1999C50.6001 12.7999 49.9001 13.0999 49.0001 13.0999C48.1001 13.0999 47.4001 12.7999 46.8001 12.1999C46.2001 11.5999 45.9001 10.8999 45.9001 9.9999C45.9001 9.0999 46.2001 8.3999 46.8001 7.7999C47.4001 7.1999 48.1001 6.8999 49.0001 6.8999C49.9001 6.8999 50.6001 7.1999 51.2001 7.7999C51.8001 8.3999 52.1001 9.0999 52.1001 9.9999C52.1001 10.8999 51.8001 11.5999 51.2001 12.1999ZM47.4001 11.6999C47.8001 12.0999 48.4001 12.3999 49.0001 12.3999C49.6001 12.3999 50.2001 12.1999 50.6001 11.6999C51.0001 11.2999 51.3001 10.6999 51.3001 9.9999C51.3001 9.2999 51.1001 8.6999 50.6001 8.2999C50.2001 7.8999 49.6001 7.5999 49.0001 7.5999C48.4001 7.5999 47.8001 7.7999 47.4001 8.2999C47.0001 8.6999 46.7001 9.2999 46.7001 9.9999C46.7001 10.6999 46.9001 11.2999 47.4001 11.6999ZM53.2001 12.9999V6.9999H55.4001C55.9001 6.9999 56.3001 7.1999 56.6001 7.4999C56.9001 7.7999 57.1001 8.1999 57.1001 8.6999C57.1001 8.9999 57.0001 9.1999 56.9001 9.4999C56.8001 9.6999 56.6001 9.8999 56.3001 9.9999C56.6001 10.0999 56.8001 10.2999 57.0001 10.4999C57.2001 10.6999 57.3001 10.9999 57.3001 11.3999C57.3001 11.8999 57.1001 12.2999 56.8001 12.5999C56.4001 12.8999 56.0001 13.0999 55.5001 13.0999H53.2001V12.9999ZM53.9001 9.5999H55.3001C55.6001 9.5999 55.8001 9.4999 56.0001 9.2999C56.2001 9.0999 56.3001 8.8999 56.3001 8.6999C56.3001 8.4999 56.2001 8.1999 56.0001 7.9999C55.8001 7.7999 55.6001 7.6999 55.3001 7.6999H53.9001V9.5999ZM53.9001 12.2999H55.5001C55.8001 12.2999 56.0001 12.1999 56.2001 11.9999C56.4001 11.7999 56.5001 11.5999 56.5001 11.2999C56.5001 11.0999 56.4001 10.7999 56.2001 10.5999C56.0001 10.3999 55.8001 10.2999 55.5001 10.2999H54.0001V12.2999H53.9001ZM58.3001 12.9999V6.9999H59.1001V12.9999H58.3001ZM64.0001 7.6999H61.3001V9.5999H63.8001V10.2999H61.3001V12.1999H64.0001V12.9999H60.5001V6.9999H64.0001V7.6999ZM65.2001 12.9999V6.9999H67.2001C67.7001 6.9999 68.1001 7.1999 68.5001 7.4999C68.9001 7.7999 69.1001 8.2999 69.1001 8.7999C69.1001 9.1999 69.0001 9.5999 68.7001 9.8999C68.4001 10.1999 68.1001 10.3999 67.7001 10.4999L69.4001 12.8999H68.5001L66.9001 10.4999H66.0001V12.9999H65.2001ZM65.9001 9.7999H67.1001C67.4001 9.7999 67.7001 9.6999 67.9001 9.4999C68.1001 9.2999 68.2001 8.9999 68.2001 8.6999C68.2001 8.3999 68.1001 8.1999 67.9001 7.9999C67.7001 7.7999 67.4001 7.6999 67.1001 7.6999H65.8001V9.7999H65.9001ZM69.8001 12.9999V12.1999L73.0001 7.6999H70.0001V6.9999H74.0001V7.7999L70.8001 12.2999H74.0001V12.9999H69.8001ZM76.7001 12.9999V12.1999L79.9001 7.6999H76.8001V6.9999H80.8001V7.7999L77.6001 12.2999H80.8001V12.9999H76.7001Z" fill="white"/>
<path d="M10.4 7.5C10.1 7.8 10 8.3 10 8.9V31C10 31.6 10.2 32.1 10.5 32.4L10.6 32.5L23 20.1V19.9L10.4 7.5Z" fill="url(#paint0_linear_323_2976)"/>
<path d="M26.9999 24.2998L22.8999 20.1998V19.8998L26.9999 15.7998L27.0999 15.8998L31.9999 18.6998C33.3999 19.4998 33.3999 20.7998 31.9999 21.5998L26.9999 24.2998Z" fill="url(#paint1_linear_323_2976)"/>
<path d="M27.0999 24.2L22.8999 20L10.3999 32.5C10.8999 33 11.5999 33 12.4999 32.6L27.0999 24.2Z" fill="url(#paint2_linear_323_2976)"/>
<path d="M27.0999 15.8001L12.4999 7.50011C11.5999 7.00011 10.8999 7.10011 10.3999 7.60011L22.8999 20.0001L27.0999 15.8001Z" fill="url(#paint3_linear_323_2976)"/>
</g>
<defs>
<linearGradient id="paint0_linear_323_2976" x1="21.8" y1="8.71" x2="5.017" y2="25.492" gradientUnits="userSpaceOnUse">
<stop stop-color="#00A0FF"/>
<stop offset="0.007" stop-color="#00A1FF"/>
<stop offset="0.26" stop-color="#00BEFF"/>
<stop offset="0.512" stop-color="#00D2FF"/>
<stop offset="0.76" stop-color="#00DFFF"/>
<stop offset="1" stop-color="#00E3FF"/>
</linearGradient>
<linearGradient id="paint1_linear_323_2976" x1="33.8339" y1="20.0018" x2="9.6369" y2="20.0018" gradientUnits="userSpaceOnUse">
<stop stop-color="#FFE000"/>
<stop offset="0.409" stop-color="#FFBD00"/>
<stop offset="0.775" stop-color="#FFA500"/>
<stop offset="1" stop-color="#FF9C00"/>
</linearGradient>
<linearGradient id="paint2_linear_323_2976" x1="24.8269" y1="22.296" x2="2.0689" y2="45.054" gradientUnits="userSpaceOnUse">
<stop stop-color="#FF3A44"/>
<stop offset="1" stop-color="#C31162"/>
</linearGradient>
<linearGradient id="paint3_linear_323_2976" x1="7.2969" y1="0.176112" x2="17.4599" y2="10.3391" gradientUnits="userSpaceOnUse">
<stop stop-color="#32A071"/>
<stop offset="0.069" stop-color="#2DA771"/>
<stop offset="0.476" stop-color="#15CF74"/>
<stop offset="0.801" stop-color="#06E775"/>
<stop offset="1" stop-color="#00F076"/>
</linearGradient>
<clipPath id="clip0_323_2976">
<rect width="135" height="40" fill="white"/>
</clipPath>
</defs>
</svg>
